<?xml version="1.0" encoding="UTF-8" standalone="no"?>
<!-- Created with Inkscape (http://www.inkscape.org/) -->

<svg
   width="108.25469mm"
   height="33.724686mm"
   viewBox="0 0 108.25469 33.724686"
   version="1.1"
   id="svg1"
   xml:space="preserve"
   xmlns="http://www.w3.org/2000/svg"
   xmlns:svg="http://www.w3.org/2000/svg"><defs
     id="defs1" /><g
     id="layer1"
     transform="translate(-45.130356,-193.01969)"><path
       style="fill:#1226aa;fill-opacity:1"
       d="m 124.77402,201.13642 c -2.34842,-2.86131 -6.94378,-5.7894 -11.5974,-7.38967 -2.32863,-0.80076 -1.82664,-0.90537 2.32019,-0.48351 13.67979,1.39166 25.4464,4.56354 31.81631,8.57659 l 0.85234,0.53698 -11.18404,0.003 -11.18404,0.003 z"
       id="path13" /><path
       style="fill:#1226aa;fill-opacity:1"
       d="m 51.253384,201.76931 c 5.151386,-3.32546 15.664618,-6.43268 26.796817,-7.91989 5.163912,-0.68988 8.661879,-0.97832 8.659984,-0.71412 -5.05e-4,0.0703 -0.847907,0.42361 -1.883117,0.78508 -4.447875,1.5531 -9.207622,4.675 -11.366854,7.45548 l -0.782344,1.00743 -11.181035,-0.004 -11.181035,-0.004 z"
       id="path14" /><path
       style="fill:#1226aa;fill-opacity:1"
       d="m 127.79432,213.41842 c 0,-0.022 0.11374,-0.57691 0.25275,-1.23318 0.47857,-2.25938 0.25281,-4.64373 -0.65008,-6.86578 l -0.43113,-1.061 h 11.82253 11.82252 l 0.79483,0.93035 c 0.43715,0.5117 0.7454,1.01032 0.685,1.10805 -0.0604,0.0977 -0.64817,0.17771 -1.30615,0.17771 -1.41106,0 -5.22229,0.53979 -7.39228,1.04698 -4.63206,1.08266 -9.01968,2.66167 -13.25403,4.76983 -1.28917,0.64185 -2.34396,1.14902 -2.34396,1.12704 z"
       id="path15" /><path
       style="fill:#1226aa;fill-opacity:1"
       d="m 69.067478,212.65328 c -4.52785,-2.28927 -8.899882,-3.91362 -13.598245,-5.05218 -1.815534,-0.43997 -6.410774,-1.12287 -7.568685,-1.12479 -1.380296,-0.002 -1.63976,-0.10312 -1.403127,-0.54528 0.09978,-0.18644 0.452503,-0.63904 0.783829,-1.00577 l 0.602411,-0.6668 H 59.70189 71.520119 l -0.336954,0.76174 c -0.948519,2.14428 -1.247546,4.97293 -0.76646,7.25034 0.128737,0.60943 0.223027,1.11939 0.209534,1.13325 -0.01349,0.0139 -0.714936,-0.32387 -1.558761,-0.75051 z"
       id="path16" /><path
       style="fill:#3db5e6;fill-opacity:1"
       d="m 110.48617,217.00545 c -0.046,-0.11985 -0.0636,-3.40137 -0.0391,-7.29228 l 0.0445,-7.07439 h 2.47181 2.47181 v 7.24496 7.24497 l -2.43274,0.0473 c -1.85264,0.036 -2.45268,-0.005 -2.51635,-0.17058 z"
       id="path17" /><path
       id="path18"
       style="fill:#3db5e6;fill-opacity:1"
       d="m 96.598407,202.58929 -3.665409,0.0496 -0.04444,7.07451 c -0.0245,3.89091 -0.0078,7.17015 0.03721,7.28741 0.127523,0.33232 7.710632,0.29707 9.011862,-0.0419 1.96634,-0.51216 3.27513,-1.50835 4.04988,-3.0825 0.3926,-0.79764 0.41224,-0.99502 0.40824,-3.99252 -0.004,-2.95105 -0.0299,-3.20557 -0.401,-3.961 -0.52544,-1.06968 -1.61229,-2.13861 -2.66289,-2.61896 -1.35265,-0.61843 -2.76271,-0.76818 -6.733448,-0.71468 z m 1.363744,3.83904 1.21026,0.0868 c 1.006449,0.072 1.284569,0.16061 1.648479,0.52452 0.42677,0.4268 0.43815,0.49717 0.45165,2.83032 0.0139,2.38874 0.013,2.39356 -0.4532,2.85977 -0.40125,0.40126 -0.63505,0.47634 -1.661919,0.53434 l -1.19527,0.0677 v -3.45147 z" /><path
       style="fill:#3db5e6;fill-opacity:1"
       d="m 83.892879,217.00575 c -0.04599,-0.11985 -0.06357,-3.40137 -0.03907,-7.29229 l 0.04454,-7.07438 h 2.471812 2.471812 v 7.24496 7.24496 l -2.43274,0.0473 c -1.85264,0.036 -2.452679,-0.005 -2.516354,-0.17057 z"
       id="path19" /><path
       style="fill:#1226aa;fill-opacity:1"
       d="m 111.77016,226.59662 c 0,-0.0901 0.39452,-0.28102 0.8767,-0.42421 5.1897,-1.54118 10.27264,-4.99154 13.2256,-8.97769 0.60292,-0.81387 0.9642,-1.07052 3.18177,-2.26024 3.73346,-2.003 8.44303,-3.92892 12.29244,-5.02684 2.78696,-0.79489 6.50619,-1.39914 10.17421,-1.65297 l 1.65071,-0.11423 0.11863,0.63237 c 0.61114,3.25766 -1.74929,6.63911 -6.57375,9.41728 -7.10166,4.0895 -17.70683,6.84849 -31.94251,8.30999 -2.99209,0.30718 -3.0038,0.30756 -3.0038,0.0965 z"
       id="path20" /><path
       style="fill:#1226aa;fill-opacity:1"
       d="m 82.790297,226.41408 c -19.805587,-2.04806 -34.21934,-7.52554 -37.218063,-14.14352 -0.382642,-0.84447 -0.59414,-3.4859 -0.312315,-3.90056 0.133955,-0.19709 0.544984,-0.20391 2.52272,-0.0418 5.662422,0.46401 10.079245,1.52078 15.403631,3.68545 4.026097,1.63683 8.652625,4.08076 9.132843,4.82435 0.570029,0.88265 2.210787,2.69332 3.396687,3.74842 2.591255,2.30545 5.99159,4.19256 10.100336,5.60544 0.492231,0.16927 0.894966,0.36646 0.894966,0.43822 0,0.17111 -0.380194,0.15017 -3.920805,-0.21596 z"
       id="path21" /><path
       style="fill:#1226aa;fill-opacity:1"
       d="m 124.77402,201.13642 c -2.34842,-2.86131 -6.94378,-5.7894 -11.5974,-7.38967 -2.32863,-0.80076 -1.82664,-0.90537 2.32019,-0.48351 13.67979,1.39166 25.4464,4.56354 31.81631,8.57659 l 0.85234,0.53698 -11.18404,0.003 -11.18404,0.003 z"
       id="path22" /><path
       style="fill:#1226aa;fill-opacity:1"
       d="m 51.253384,201.76931 c 5.151386,-3.32546 15.664618,-6.43268 26.796817,-7.91989 5.163912,-0.68988 8.661879,-0.97832 8.659984,-0.71412 -5.05e-4,0.0703 -0.847907,0.42361 -1.883117,0.78508 -4.447875,1.5531 -9.207622,4.675 -11.366854,7.45548 l -0.782344,1.00743 -11.181035,-0.004 -11.181035,-0.004 z"
       id="path23" /><path
       style="fill:#1226aa;fill-opacity:1"
       d="m 127.79432,213.41842 c 0,-0.022 0.11374,-0.57691 0.25275,-1.23318 0.47857,-2.25938 0.25281,-4.64373 -0.65008,-6.86578 l -0.43113,-1.061 h 11.82253 11.82252 l 0.79483,0.93035 c 0.43715,0.5117 0.7454,1.01032 0.685,1.10805 -0.0604,0.0977 -0.64817,0.17771 -1.30615,0.17771 -1.41106,0 -5.22229,0.53979 -7.39228,1.04698 -4.63206,1.08266 -9.01968,2.66167 -13.25403,4.76983 -1.28917,0.64185 -2.34396,1.14902 -2.34396,1.12704 z"
       id="path24" /><path
       style="fill:#1226aa;fill-opacity:1"
       d="m 69.067478,212.65328 c -4.52785,-2.28927 -8.899882,-3.91362 -13.598245,-5.05218 -1.815534,-0.43997 -6.410774,-1.12287 -7.568685,-1.12479 -1.380296,-0.002 -1.63976,-0.10312 -1.403127,-0.54528 0.09978,-0.18644 0.452503,-0.63904 0.783829,-1.00577 l 0.602411,-0.6668 H 59.70189 71.520119 l -0.336954,0.76174 c -0.948519,2.14428 -1.247546,4.97293 -0.76646,7.25034 0.128737,0.60943 0.223027,1.11939 0.209534,1.13325 -0.01349,0.0139 -0.714936,-0.32387 -1.558761,-0.75051 z"
       id="path25" /><path
       style="fill:#3db5e6;fill-opacity:1"
       d="m 110.48617,217.00545 c -0.046,-0.11985 -0.0636,-3.40137 -0.0391,-7.29228 l 0.0445,-7.07439 h 2.47181 2.47181 v 7.24496 7.24497 l -2.43274,0.0473 c -1.85264,0.036 -2.45268,-0.005 -2.51635,-0.17058 z"
       id="path26" /><path
       id="path27"
       style="fill:#3db5e6;fill-opacity:1"
       d="m 96.598407,202.58929 -3.665409,0.0496 -0.04444,7.07451 c -0.0245,3.89091 -0.0078,7.17015 0.03721,7.28741 0.127523,0.33232 7.710632,0.29707 9.011862,-0.0419 1.96634,-0.51216 3.27513,-1.50835 4.04988,-3.0825 0.3926,-0.79764 0.41224,-0.99502 0.40824,-3.99252 -0.004,-2.95105 -0.0299,-3.20557 -0.401,-3.961 -0.52544,-1.06968 -1.61229,-2.13861 -2.66289,-2.61896 -1.35265,-0.61843 -2.76271,-0.76818 -6.733448,-0.71468 z m 1.363744,3.83904 1.21026,0.0868 c 1.006449,0.072 1.284569,0.16061 1.648479,0.52452 0.42677,0.4268 0.43815,0.49717 0.45165,2.83032 0.0139,2.38874 0.013,2.39356 -0.4532,2.85977 -0.40125,0.40126 -0.63505,0.47634 -1.661919,0.53434 l -1.19527,0.0677 v -3.45147 z" /><path
       style="fill:#3db5e6;fill-opacity:1"
       d="m 83.892879,217.00575 c -0.04599,-0.11985 -0.06357,-3.40137 -0.03907,-7.29229 l 0.04454,-7.07438 h 2.471812 2.471812 v 7.24496 7.24496 l -2.43274,0.0473 c -1.85264,0.036 -2.452679,-0.005 -2.516354,-0.17057 z"
       id="path28" /><path
       style="fill:#1226aa;fill-opacity:1"
       d="m 111.77016,226.59662 c 0,-0.0901 0.39452,-0.28102 0.8767,-0.42421 5.1897,-1.54118 10.27264,-4.99154 13.2256,-8.97769 0.60292,-0.81387 0.9642,-1.07052 3.18177,-2.26024 3.73346,-2.003 8.44303,-3.92892 12.29244,-5.02684 2.78696,-0.79489 6.50619,-1.39914 10.17421,-1.65297 l 1.65071,-0.11423 0.11863,0.63237 c 0.61114,3.25766 -1.74929,6.63911 -6.57375,9.41728 -7.10166,4.0895 -17.70683,6.84849 -31.94251,8.30999 -2.99209,0.30718 -3.0038,0.30756 -3.0038,0.0965 z"
       id="path29" /><path
       style="fill:#1226aa;fill-opacity:1"
       d="m 82.790297,226.41408 c -19.805587,-2.04806 -34.21934,-7.52554 -37.218063,-14.14352 -0.382642,-0.84447 -0.59414,-3.4859 -0.312315,-3.90056 0.133955,-0.19709 0.544984,-0.20391 2.52272,-0.0418 5.662422,0.46401 10.079245,1.52078 15.403631,3.68545 4.026097,1.63683 8.652625,4.08076 9.132843,4.82435 0.570029,0.88265 2.210787,2.69332 3.396687,3.74842 2.591255,2.30545 5.99159,4.19256 10.100336,5.60544 0.492231,0.16927 0.894966,0.36646 0.894966,0.43822 0,0.17111 -0.380194,0.15017 -3.920805,-0.21596 z"
       id="path30" /></g></svg>
