<?xml version="1.0" encoding="UTF-8" standalone="no"?>
<!-- Created with Inkscape (http://www.inkscape.org/) -->

<svg
   width="108.25467mm"
   height="33.724693mm"
   viewBox="0 0 108.25467 33.724693"
   version="1.1"
   id="svg1"
   xml:space="preserve"
   xmlns="http://www.w3.org/2000/svg"
   xmlns:svg="http://www.w3.org/2000/svg"><defs
     id="defs1" /><g
     id="layer1"
     transform="translate(-46.19399,-79.374239)"><path
       style="fill:#000000"
       d="m 83.853933,112.76863 c -19.805587,-2.04806 -34.21934,-7.52554 -37.218063,-14.143524 -0.382642,-0.844468 -0.59414,-3.485899 -0.312315,-3.900558 0.133955,-0.197094 0.544984,-0.203912 2.52272,-0.04184 5.662422,0.464013 10.079245,1.520774 15.403631,3.685444 4.026097,1.636838 8.652625,4.080768 9.132843,4.824358 0.570029,0.88265 2.210787,2.69332 3.396687,3.74842 2.591255,2.30545 5.99159,4.19256 10.100336,5.60544 0.492231,0.16927 0.894966,0.36646 0.894966,0.43822 0,0.17111 -0.380194,0.15017 -3.920805,-0.21596 z m 28.979867,0.18254 c 0,-0.0901 0.39452,-0.28102 0.8767,-0.42421 5.1897,-1.54118 10.27264,-4.99154 13.2256,-8.97769 0.60292,-0.81387 0.9642,-1.07052 3.18177,-2.26024 3.73346,-2.003002 8.44303,-3.928921 12.29244,-5.026845 2.78696,-0.794892 6.50619,-1.399141 10.17421,-1.652966 l 1.65071,-0.114228 0.11863,0.632368 c 0.61114,3.257654 -1.74929,6.639111 -6.57375,9.417281 -7.10166,4.0895 -17.70683,6.84849 -31.94251,8.30999 -2.99209,0.30718 -3.0038,0.30756 -3.0038,0.0965 z M 84.956515,103.3603 c -0.04599,-0.11985 -0.06357,-3.401376 -0.03907,-7.292289 l 0.04454,-7.074389 h 2.471812 2.471812 v 7.244967 7.244961 l -2.43274,0.0473 c -1.85264,0.036 -2.452679,-0.005 -2.516354,-0.17057 z m 9.033094,-0.005 c -0.045,-0.11726 -0.06177,-3.396674 -0.03727,-7.287587 l 0.04454,-7.074389 3.6651,-0.04937 c 3.970741,-0.05348 5.380911,0.09618 6.733561,0.714635 1.0506,0.480352 2.13719,1.549015 2.66263,2.618693 0.37108,0.755438 0.39686,1.009953 0.40119,3.961004 0.004,2.997503 -0.0158,3.195253 -0.4084,3.992894 -0.77475,1.57415 -2.08346,2.57025 -4.0498,3.08241 -1.30123,0.33893 -8.884035,0.37402 -9.011558,0.0417 z m 7.893301,-4.271183 c 0.46621,-0.466208 0.46697,-0.470974 0.45311,-2.859707 -0.0135,-2.333156 -0.0248,-2.403616 -0.45157,-2.830413 -0.36391,-0.363909 -0.64175,-0.452292 -1.6482,-0.524303 l -1.210505,-0.08661 v 3.451539 3.451539 l 1.195095,-0.06753 c 1.02687,-0.05802 1.26082,-0.13326 1.66207,-0.534515 z m 9.6669,4.275883 c -0.046,-0.11985 -0.0636,-3.401374 -0.0391,-7.292287 l 0.0445,-7.074389 h 2.47181 2.47181 v 7.244967 7.244969 l -2.43274,0.0473 c -1.85264,0.036 -2.45268,-0.005 -2.51635,-0.17058 z M 70.131114,99.00783 c -4.52785,-2.289271 -8.899882,-3.913622 -13.598245,-5.052186 -1.815534,-0.439963 -6.410774,-1.122863 -7.568685,-1.124786 -1.380296,-0.0023 -1.63976,-0.103124 -1.403127,-0.545278 0.09978,-0.186439 0.452503,-0.63904 0.783829,-1.005778 l 0.602411,-0.666797 h 11.818229 11.818229 l -0.336954,0.761739 c -0.948519,2.144285 -1.247546,4.972931 -0.76646,7.250342 0.128737,0.609429 0.223027,1.119392 0.209534,1.13325 -0.01349,0.01386 -0.714936,-0.32387 -1.558761,-0.750506 z m 58.726846,0.765139 c 0,-0.02198 0.11374,-0.576908 0.25275,-1.233182 0.47857,-2.259382 0.25281,-4.643734 -0.65008,-6.865776 l -0.43113,-1.061006 h 11.82253 11.82252 l 0.79483,0.930353 c 0.43715,0.511694 0.7454,1.010318 0.685,1.108053 -0.0604,0.09774 -0.64817,0.177701 -1.30615,0.177701 -1.41106,0 -5.22229,0.539796 -7.39228,1.046988 -4.63206,1.082654 -9.01968,2.661662 -13.25403,4.76983 -1.28917,0.641848 -2.34396,1.149015 -2.34396,1.127039 z M 52.31702,88.123856 c 5.151386,-3.32546 15.664618,-6.432682 26.796817,-7.919893 5.163912,-0.689875 8.661879,-0.978321 8.659984,-0.714113 -5.05e-4,0.07032 -0.847907,0.423603 -1.883117,0.785076 -4.447875,1.553103 -9.207622,4.675003 -11.366854,7.455476 l -0.782344,1.007435 -11.181035,-0.0044 -11.181035,-0.0044 z m 73.52064,-0.632891 c -2.34842,-2.861312 -6.94378,-5.789397 -11.5974,-7.389671 -2.32863,-0.800762 -1.82664,-0.905372 2.32019,-0.483509 13.67979,1.391665 25.4464,4.563542 31.81631,8.576593 l 0.85234,0.536981 -11.18404,0.0032 -11.18404,0.0032 z"
       id="path1" /></g></svg>
